<svg class="svg-icon" style="width: 1em; height: 1em;vertical-align: middle;fill: white;overflow: hidden;" viewBox="0 0 1024 1024" version="1.1" xmlns="http://www.w3.org/2000/svg"><path d="M512 529.066667c-10.24 0-17.066667-6.826667-17.066667-17.066667v-136.533333c0-10.24 6.826667-17.066667 17.066667-17.066667s17.066667 6.826667 17.066667 17.066667v136.533333c0 10.24-6.826667 17.066667-17.066667 17.066667z" fill="" /><path d="M819.2 665.6c-10.24 0-17.066667-6.826667-17.066667-17.066667v-51.2c0-37.546667-30.72-68.266667-68.266666-68.266666h-443.733334c-37.546667 0-68.266667 30.72-68.266666 68.266666V648.533333c0 10.24-6.826667 17.066667-17.066667 17.066667s-17.066667-6.826667-17.066667-17.066667v-51.2c0-58.026667 44.373333-102.4 102.4-102.4h443.733334c58.026667 0 102.4 44.373333 102.4 102.4V648.533333c0 10.24-6.826667 17.066667-17.066667 17.066667zM512 392.533333C409.6 392.533333 324.266667 307.2 324.266667 204.8S409.6 17.066667 512 17.066667 699.733333 102.4 699.733333 204.8 614.4 392.533333 512 392.533333z m0-341.333333c-85.333333 0-153.6 68.266667-153.6 153.6s68.266667 153.6 153.6 153.6 153.6-68.266667 153.6-153.6-68.266667-153.6-153.6-153.6z" fill="" /><path d="M204.8 1006.933333C102.4 1006.933333 17.066667 921.6 17.066667 819.2S102.4 631.466667 204.8 631.466667s187.733333 85.333333 187.733333 187.733333S307.2 1006.933333 204.8 1006.933333z m0-341.333333c-85.333333 0-153.6 68.266667-153.6 153.6s68.266667 153.6 153.6 153.6 153.6-68.266667 153.6-153.6-68.266667-153.6-153.6-153.6zM819.2 1006.933333c-102.4 0-187.733333-85.333333-187.733333-187.733333s85.333333-187.733333 187.733333-187.733333 187.733333 85.333333 187.733333 187.733333-85.333333 187.733333-187.733333 187.733333z m0-341.333333c-85.333333 0-153.6 68.266667-153.6 153.6s68.266667 153.6 153.6 153.6 153.6-68.266667 153.6-153.6-68.266667-153.6-153.6-153.6z" fill="" /></svg>