<?xml version="1.0" encoding="UTF-8" standalone="no"?>
<svg xmlns="http://www.w3.org/2000/svg" version="1.2" baseProfile="tiny" viewBox="0 0 338 151">
<g fill="none" stroke-width="1.00" stroke="#0161ab">
<path vector-effect="non-scaling-stroke" d="
  M 0.00 0.00
  L 338.00 0.00
  L 338.00 151.00
  L 0.00 151.00
  L 0.00 0.00
  Z
  M 139.92 105.93
  A 1.01 1.01 0.0 0 0 139.08 106.38
  C 125.27 127.33 99.46 136.79 76.35 125.01
  C 32.08 102.45 46.08 34.99 96.18 33.68
  Q 123.22 32.97 138.97 57.01
  A 0.99 0.98 -16.2 0 0 139.80 57.46
  L 158.11 57.54
  A 1.00 0.99 -11.8 0 0 159.03 56.14
  Q 146.61 28.05 118.71 18.52
  C 77.00 4.28 32.63 34.82 31.37 78.78
  Q 31.14 86.65 31.54 89.69
  C 37.00 130.68 76.97 158.02 117.22 145.39
  Q 146.12 136.32 158.96 107.43
  A 1.00 1.00 0.0 0 0 158.05 106.03
  L 139.92 105.93
  Z
  M 123.97 105.83
  A 1.02 1.00 20.3 0 0 123.21 106.17
  C 114.12 116.44 98.57 119.61 86.19 115.31
  C 55.41 104.63 54.09 62.44 83.62 49.16
  C 98.25 42.58 111.56 46.84 123.44 57.24
  A 0.99 0.97 65.4 0 0 124.09 57.49
  L 134.04 57.52
  Q 135.97 57.53 134.86 55.95
  Q 128.51 46.91 119.22 41.84
  C 103.68 33.37 83.88 34.80 69.83 45.79
  C 49.98 61.32 46.21 91.83 62.95 111.06
  C 76.93 127.13 99.41 131.87 118.31 122.13
  Q 128.17 117.05 134.82 107.61
  Q 135.90 106.07 134.02 106.03
  L 123.97 105.83
  Z
  M 134.33 87.37
  C 128.26 86.04 128.37 74.59 132.24 71.48
  C 134.83 69.40 141.17 69.79 141.89 74.24
  A 1.00 1.00 0.0 0 0 142.89 75.08
  L 146.35 75.04
  A 1.01 1.00 85.1 0 0 147.33 73.87
  Q 146.21 67.18 140.03 65.72
  C 130.96 63.58 124.08 68.82 124.05 78.01
  C 124.03 83.97 125.12 89.15 131.05 91.66
  Q 138.22 94.70 144.86 89.37
  Q 146.75 87.85 147.32 84.41
  A 1.00 1.00 0.0 0 0 146.33 83.25
  L 142.76 83.25
  A 0.99 0.99 0.0 0 0 141.83 83.90
  Q 140.05 88.63 134.33 87.37
  Z
  M 88.00 71.04
  A 0.66 0.66 0.0 0 1 88.65 70.38
  L 95.54 70.27
  A 0.66 0.66 0.0 0 0 96.19 69.63
  L 96.27 66.22
  A 0.66 0.66 0.0 0 0 95.62 65.55
  L 75.14 65.48
  A 0.66 0.66 0.0 0 0 74.48 66.16
  L 74.56 69.80
  A 0.66 0.66 0.0 0 0 75.25 70.44
  L 81.77 70.18
  A 0.66 0.66 0.0 0 1 82.45 70.83
  L 82.61 91.64
  A 0.66 0.66 0.0 0 0 83.29 92.29
  L 87.37 92.13
  A 0.66 0.66 0.0 0 0 88.00 91.48
  L 88.00 71.04
  Z
  M 106.98 87.53
  A 0.48 0.48 0.0 0 1 106.50 87.05
  L 106.50 81.73
  A 0.48 0.48 0.0 0 1 106.98 81.25
  L 117.02 81.25
  A 0.48 0.48 0.0 0 0 117.50 80.77
  L 117.50 76.95
  A 0.48 0.48 0.0 0 0 117.01 76.47
  L 106.99 76.58
  A 0.48 0.48 0.0 0 1 106.50 76.10
  L 106.50 70.70
  A 0.48 0.48 0.0 0 1 106.99 70.22
  L 118.20 70.33
  A 0.48 0.48 0.0 0 0 118.68 69.87
  L 118.78 65.98
  A 0.48 0.48 0.0 0 0 118.30 65.49
  L 101.36 65.53
  A 0.48 0.48 0.0 0 0 100.88 66.01
  L 101.05 91.77
  A 0.48 0.48 0.0 0 0 101.53 92.25
  L 118.20 92.25
  A 0.48 0.48 0.0 0 0 118.68 91.78
  L 118.78 87.94
  A 0.48 0.48 0.0 0 0 118.29 87.44
  L 106.98 87.53
  Z
  M 169.25 71.27
  L 169.25 91.25
  A 1.00 1.00 0.0 0 0 170.25 92.25
  L 173.75 92.26
  A 1.00 1.00 0.0 0 0 174.75 91.26
  L 174.75 66.50
  A 1.00 1.00 0.0 0 0 173.75 65.50
  L 157.95 65.50
  A 1.00 1.00 0.0 0 0 156.95 66.46
  Q 156.62 74.96 156.19 83.41
  Q 156.01 87.05 152.43 87.54
  A 1.00 1.00 0.0 0 0 151.56 88.50
  L 151.48 91.07
  A 1.01 1.00 -85.2 0 0 152.33 92.09
  C 163.53 93.81 161.58 77.69 162.00 71.25
  A 1.00 1.00 0.0 0 1 162.99 70.31
  L 168.24 70.27
  A 1.01 1.00 -0.0 0 1 169.25 71.27
  Z
  M 196.34 86.25
  A 0.51 0.51 0.0 0 1 196.82 86.59
  L 198.76 91.94
  A 0.51 0.51 0.0 0 0 199.25 92.28
  L 203.90 92.18
  A 0.51 0.51 0.0 0 0 204.38 91.50
  L 195.65 65.85
  A 0.51 0.51 0.0 0 0 195.16 65.50
  L 188.80 65.51
  A 0.51 0.51 0.0 0 0 188.32 65.85
  L 179.54 91.58
  A 0.51 0.51 0.0 0 0 180.02 92.25
  L 184.72 92.26
  A 0.51 0.51 0.0 0 0 185.20 91.92
  L 187.06 86.59
  A 0.51 0.51 0.0 0 1 187.54 86.25
  L 196.34 86.25
  Z
  M 232.25 78.69
  L 232.25 91.25
  A 1.00 1.00 0.0 0 0 233.25 92.25
  L 236.50 92.25
  A 1.00 1.00 0.0 0 0 237.50 91.25
  L 237.50 66.47
  A 1.00 1.00 0.0 0 0 236.48 65.47
  L 231.53 65.59
  A 1.00 0.98 -79.1 0 0 230.63 66.21
  L 224.11 82.13
  Q 223.37 83.95 222.63 82.13
  L 216.15 66.18
  A 1.01 0.99 79.3 0 0 215.24 65.55
  L 210.22 65.48
  A 1.00 0.99 -89.4 0 0 209.21 66.48
  L 209.27 91.27
  A 0.99 0.99 0.0 0 0 210.29 92.26
  L 213.52 92.19
  A 1.00 1.00 0.0 0 0 214.50 91.19
  L 214.50 78.64
  Q 214.49 74.55 216.04 78.34
  L 221.27 91.18
  A 0.99 0.94 8.9 0 0 221.60 91.61
  Q 223.25 92.81 224.92 91.92
  A 1.02 1.00 87.7 0 0 225.38 91.41
  L 230.71 78.38
  Q 232.25 74.62 232.25 78.69
  Z
  M 249.43 87.50
  A 0.43 0.43 0.0 0 1 249.00 87.07
  L 249.00 81.68
  A 0.43 0.43 0.0 0 1 249.43 81.25
  L 259.82 81.25
  A 0.43 0.43 0.0 0 0 260.25 80.82
  L 260.25 76.92
  A 0.43 0.43 0.0 0 0 259.82 76.49
  L 249.42 76.52
  A 0.43 0.43 0.0 0 1 248.99 76.09
  L 249.00 70.63
  A 0.43 0.43 0.0 0 1 249.43 70.21
  L 260.85 70.34
  A 0.43 0.43 0.0 0 0 261.29 69.92
  L 261.37 65.94
  A 0.43 0.43 0.0 0 0 260.94 65.50
  L 243.90 65.50
  A 0.43 0.43 0.0 0 0 243.47 65.93
  L 243.52 91.82
  A 0.43 0.43 0.0 0 0 243.95 92.25
  L 261.14 92.25
  A 0.43 0.43 0.0 0 0 261.57 91.79
  L 261.28 87.90
  A 0.43 0.43 0.0 0 0 260.85 87.50
  L 249.43 87.50
  Z
  M 289.52 86.50
  L 289.22 66.49
  A 1.00 1.00 0.0 0 0 288.22 65.50
  L 272.73 65.50
  A 1.00 1.00 0.0 0 0 271.73 66.44
  Q 271.50 70.47 270.48 81.73
  Q 270.04 86.50 266.12 87.89
  A 1.00 0.99 -10.3 0 0 265.46 88.84
  L 265.52 97.56
  A 1.00 0.99 -0.6 0 0 266.54 98.55
  L 269.77 98.49
  A 1.00 1.00 0.0 0 0 270.75 97.49
  L 270.75 93.25
  A 1.00 1.00 0.0 0 1 271.75 92.25
  L 285.74 92.25
  A 1.01 1.00 87.8 0 1 286.74 93.18
  L 287.03 97.55
  A 1.01 1.00 87.3 0 0 288.05 98.49
  L 290.64 98.43
  A 0.99 0.99 0.0 0 0 291.62 97.44
  L 291.65 88.54
  A 1.00 0.99 -85.7 0 0 290.81 87.55
  L 290.36 87.47
  A 0.99 0.99 0.0 0 1 289.52 86.50
  Z
  M 261.23 97.12
  A 0.66 0.66 0.0 0 0 260.57 96.46
  L 75.31 96.46
  A 0.66 0.66 0.0 0 0 74.65 97.12
  L 74.65 101.34
  A 0.66 0.66 0.0 0 0 75.31 102.00
  L 260.57 102.00
  A 0.66 0.66 0.0 0 0 261.23 101.34
  L 261.23 97.12
  Z"
/>
<path vector-effect="non-scaling-stroke" d="
  M 115.12 25.44
  C 117.83 26.34 119.00 28.73 115.86 30.19
  A 1.02 0.98 39.8 0 1 115.15 30.24
  Q 97.44 24.83 79.73 30.25
  A 1.03 1.00 -34.1 0 1 78.84 30.09
  C 75.68 27.72 77.91 25.86 80.49 25.07
  Q 97.91 19.74 115.12 25.44
  Z"
/>
<path vector-effect="non-scaling-stroke" d="
  M 277.07 70.50
  L 283.63 70.50
  A 0.37 0.37 0.0 0 1 284.00 70.87
  L 284.00 87.05
  A 0.37 0.37 0.0 0 1 283.64 87.42
  L 274.47 87.77
  A 0.37 0.37 0.0 0 1 274.13 87.23
  L 275.27 84.98
  A 0.37 0.37 0.0 0 0 275.31 84.85
  L 276.71 70.83
  A 0.37 0.37 0.0 0 1 277.07 70.50
  Z"
/>
<path vector-effect="non-scaling-stroke" d="
  M 188.84 81.34
  L 191.65 72.16
  A 0.32 0.32 0.0 0 1 192.27 72.16
  L 195.08 81.34
  A 0.32 0.32 0.0 0 1 194.77 81.75
  L 189.15 81.75
  A 0.32 0.32 0.0 0 1 188.84 81.34
  Z"
/>
</g>
<g fill="white" stroke-width="1.00" stroke="#fefefe">
<path vector-effect="non-scaling-stroke" d="
  M 139.92 105.93
  L 158.05 106.03
  A 1.00 1.00 0.0 0 1 158.96 107.43
  Q 146.12 136.32 117.22 145.39
  C 76.97 158.02 37.00 130.68 31.54 89.69
  Q 31.14 86.65 31.37 78.78
  C 32.63 34.82 77.00 4.28 118.71 18.52
  Q 146.61 28.05 159.03 56.14
  A 1.00 0.99 -11.8 0 1 158.11 57.54
  L 139.80 57.46
  A 0.99 0.98 -16.2 0 1 138.97 57.01
  Q 123.22 32.97 96.18 33.68
  C 46.08 34.99 32.08 102.45 76.35 125.01
  C 99.46 136.79 125.27 127.33 139.08 106.38
  A 1.01 1.01 0.0 0 1 139.92 105.93
  Z
  M 115.12 25.44
  Q 97.91 19.74 80.49 25.07
  C 77.91 25.86 75.68 27.72 78.84 30.09
  A 1.03 1.00 -34.1 0 0 79.73 30.25
  Q 97.44 24.83 115.15 30.24
  A 1.02 0.98 39.8 0 0 115.86 30.19
  C 119.00 28.73 117.83 26.34 115.12 25.44
  Z"
/>
<path vector-effect="non-scaling-stroke" d="
  M 123.97 105.83
  L 134.02 106.03
  Q 135.90 106.07 134.82 107.61
  Q 128.17 117.05 118.31 122.13
  C 99.41 131.87 76.93 127.13 62.95 111.06
  C 46.21 91.83 49.98 61.32 69.83 45.79
  C 83.88 34.80 103.68 33.37 119.22 41.84
  Q 128.51 46.91 134.86 55.95
  Q 135.97 57.53 134.04 57.52
  L 124.09 57.49
  A 0.99 0.97 65.4 0 1 123.44 57.24
  C 111.56 46.84 98.25 42.58 83.62 49.16
  C 54.09 62.44 55.41 104.63 86.19 115.31
  C 98.57 119.61 114.12 116.44 123.21 106.17
  A 1.02 1.00 20.3 0 1 123.97 105.83
  Z"
/>
<path vector-effect="non-scaling-stroke" d="
  M 134.33 87.37
  Q 140.05 88.63 141.83 83.90
  A 0.99 0.99 0.0 0 1 142.76 83.25
  L 146.33 83.25
  A 1.00 1.00 0.0 0 1 147.32 84.41
  Q 146.75 87.85 144.86 89.37
  Q 138.22 94.70 131.05 91.66
  C 125.12 89.15 124.03 83.97 124.05 78.01
  C 124.08 68.82 130.96 63.58 140.03 65.72
  Q 146.21 67.18 147.33 73.87
  A 1.01 1.00 85.1 0 1 146.35 75.04
  L 142.89 75.08
  A 1.00 1.00 0.0 0 1 141.89 74.24
  C 141.17 69.79 134.83 69.40 132.24 71.48
  C 128.37 74.59 128.26 86.04 134.33 87.37
  Z"
/>
<path vector-effect="non-scaling-stroke" d="
  M 88.00 71.04
  L 88.00 91.48
  A 0.66 0.66 0.0 0 1 87.37 92.13
  L 83.29 92.29
  A 0.66 0.66 0.0 0 1 82.61 91.64
  L 82.45 70.83
  A 0.66 0.66 0.0 0 0 81.77 70.18
  L 75.25 70.44
  A 0.66 0.66 0.0 0 1 74.56 69.80
  L 74.48 66.16
  A 0.66 0.66 0.0 0 1 75.14 65.48
  L 95.62 65.55
  A 0.66 0.66 0.0 0 1 96.27 66.22
  L 96.19 69.63
  A 0.66 0.66 0.0 0 1 95.54 70.27
  L 88.65 70.38
  A 0.66 0.66 0.0 0 0 88.00 71.04
  Z"
/>
<path vector-effect="non-scaling-stroke" d="
  M 106.98 87.53
  L 118.29 87.44
  A 0.48 0.48 0.0 0 1 118.78 87.94
  L 118.68 91.78
  A 0.48 0.48 0.0 0 1 118.20 92.25
  L 101.53 92.25
  A 0.48 0.48 0.0 0 1 101.05 91.77
  L 100.88 66.01
  A 0.48 0.48 0.0 0 1 101.36 65.53
  L 118.30 65.49
  A 0.48 0.48 0.0 0 1 118.78 65.98
  L 118.68 69.87
  A 0.48 0.48 0.0 0 1 118.20 70.33
  L 106.99 70.22
  A 0.48 0.48 0.0 0 0 106.50 70.70
  L 106.50 76.10
  A 0.48 0.48 0.0 0 0 106.99 76.58
  L 117.01 76.47
  A 0.48 0.48 0.0 0 1 117.50 76.95
  L 117.50 80.77
  A 0.48 0.48 0.0 0 1 117.02 81.25
  L 106.98 81.25
  A 0.48 0.48 0.0 0 0 106.50 81.73
  L 106.50 87.05
  A 0.48 0.48 0.0 0 0 106.98 87.53
  Z"
/>
<path vector-effect="non-scaling-stroke" d="
  M 168.24 70.27
  L 162.99 70.31
  A 1.00 1.00 0.0 0 0 162.00 71.25
  C 161.58 77.69 163.53 93.81 152.33 92.09
  A 1.01 1.00 -85.2 0 1 151.48 91.07
  L 151.56 88.50
  A 1.00 1.00 0.0 0 1 152.43 87.54
  Q 156.01 87.05 156.19 83.41
  Q 156.62 74.96 156.95 66.46
  A 1.00 1.00 0.0 0 1 157.95 65.50
  L 173.75 65.50
  A 1.00 1.00 0.0 0 1 174.75 66.50
  L 174.75 91.26
  A 1.00 1.00 0.0 0 1 173.75 92.26
  L 170.25 92.25
  A 1.00 1.00 0.0 0 1 169.25 91.25
  L 169.25 71.27
  A 1.01 1.00 0.0 0 0 168.24 70.27
  Z"
/>
<path vector-effect="non-scaling-stroke" d="
  M 196.34 86.25
  L 187.54 86.25
  A 0.51 0.51 0.0 0 0 187.06 86.59
  L 185.20 91.92
  A 0.51 0.51 0.0 0 1 184.72 92.26
  L 180.02 92.25
  A 0.51 0.51 0.0 0 1 179.54 91.58
  L 188.32 65.85
  A 0.51 0.51 0.0 0 1 188.80 65.51
  L 195.16 65.50
  A 0.51 0.51 0.0 0 1 195.65 65.85
  L 204.38 91.50
  A 0.51 0.51 0.0 0 1 203.90 92.18
  L 199.25 92.28
  A 0.51 0.51 0.0 0 1 198.76 91.94
  L 196.82 86.59
  A 0.51 0.51 0.0 0 0 196.34 86.25
  Z
  M 188.84 81.34
  A 0.32 0.32 0.0 0 0 189.15 81.75
  L 194.77 81.75
  A 0.32 0.32 0.0 0 0 195.08 81.34
  L 192.27 72.16
  A 0.32 0.32 0.0 0 0 191.65 72.16
  L 188.84 81.34
  Z"
/>
<path vector-effect="non-scaling-stroke" d="
  M 230.71 78.38
  L 225.38 91.41
  A 1.02 1.00 87.7 0 1 224.92 91.92
  Q 223.25 92.81 221.60 91.61
  A 0.99 0.94 8.9 0 1 221.27 91.18
  L 216.04 78.34
  Q 214.49 74.55 214.50 78.64
  L 214.50 91.19
  A 1.00 1.00 0.0 0 1 213.52 92.19
  L 210.29 92.26
  A 0.99 0.99 0.0 0 1 209.27 91.27
  L 209.21 66.48
  A 1.00 0.99 -89.4 0 1 210.22 65.48
  L 215.24 65.55
  A 1.01 0.99 79.3 0 1 216.15 66.18
  L 222.63 82.13
  Q 223.37 83.95 224.11 82.13
  L 230.63 66.21
  A 1.00 0.98 -79.1 0 1 231.53 65.59
  L 236.48 65.47
  A 1.00 1.00 0.0 0 1 237.50 66.47
  L 237.50 91.25
  A 1.00 1.00 0.0 0 1 236.50 92.25
  L 233.25 92.25
  A 1.00 1.00 0.0 0 1 232.25 91.25
  L 232.25 78.69
  Q 232.25 74.62 230.71 78.38
  Z"
/>
<path vector-effect="non-scaling-stroke" d="
  M 249.43 87.50
  L 260.85 87.50
  A 0.43 0.43 0.0 0 1 261.28 87.90
  L 261.57 91.79
  A 0.43 0.43 0.0 0 1 261.14 92.25
  L 243.95 92.25
  A 0.43 0.43 0.0 0 1 243.52 91.82
  L 243.47 65.93
  A 0.43 0.43 0.0 0 1 243.90 65.50
  L 260.94 65.50
  A 0.43 0.43 0.0 0 1 261.37 65.94
  L 261.29 69.92
  A 0.43 0.43 0.0 0 1 260.85 70.34
  L 249.43 70.21
  A 0.43 0.43 0.0 0 0 249.00 70.63
  L 248.99 76.09
  A 0.43 0.43 0.0 0 0 249.42 76.52
  L 259.82 76.49
  A 0.43 0.43 0.0 0 1 260.25 76.92
  L 260.25 80.82
  A 0.43 0.43 0.0 0 1 259.82 81.25
  L 249.43 81.25
  A 0.43 0.43 0.0 0 0 249.00 81.68
  L 249.00 87.07
  A 0.43 0.43 0.0 0 0 249.43 87.50
  Z"
/>
<path vector-effect="non-scaling-stroke" d="
  M 290.36 87.47
  L 290.81 87.55
  A 1.00 0.99 -85.7 0 1 291.65 88.54
  L 291.62 97.44
  A 0.99 0.99 0.0 0 1 290.64 98.43
  L 288.05 98.49
  A 1.01 1.00 87.3 0 1 287.03 97.55
  L 286.74 93.18
  A 1.01 1.00 87.8 0 0 285.74 92.25
  L 271.75 92.25
  A 1.00 1.00 0.0 0 0 270.75 93.25
  L 270.75 97.49
  A 1.00 1.00 0.0 0 1 269.77 98.49
  L 266.54 98.55
  A 1.00 0.99 -0.6 0 1 265.52 97.56
  L 265.46 88.84
  A 1.00 0.99 -10.3 0 1 266.12 87.89
  Q 270.04 86.50 270.48 81.73
  Q 271.50 70.47 271.73 66.44
  A 1.00 1.00 0.0 0 1 272.73 65.50
  L 288.22 65.50
  A 1.00 1.00 0.0 0 1 289.22 66.49
  L 289.52 86.50
  A 0.99 0.99 0.0 0 0 290.36 87.47
  Z
  M 277.07 70.50
  A 0.37 0.37 0.0 0 0 276.71 70.83
  L 275.31 84.85
  A 0.37 0.37 0.0 0 1 275.27 84.98
  L 274.13 87.23
  A 0.37 0.37 0.0 0 0 274.47 87.77
  L 283.64 87.42
  A 0.37 0.37 0.0 0 0 284.00 87.05
  L 284.00 70.87
  A 0.37 0.37 0.0 0 0 283.63 70.50
  L 277.07 70.50
  Z"
/>
<rect vector-effect="non-scaling-stroke" x="74.65" y="96.46" width="186.58" height="5.54" rx="0.66"/>
</g>
</svg>
